<svg width="465" height="117" viewBox="0 0 465 117" fill="none" xmlns="http://www.w3.org/2000/svg">
<path d="M233.24 0.019989C233.14 0.449989 233.44 0.449991 233.72 0.489991C236.2 0.89999 238.56 1.83 241.01 2.31C243.29 2.76 245.45 3.58 247.75 3.97C250.05 4.36 252.08 5.06997 254.25 5.62997C256.42 6.18997 258.47 6.62999 260.52 7.26999C263.32 8.19999 266.24 8.64998 269.07 9.47998C271.25 10.11 273.53 10.57 275.76 11.12C277.99 11.67 280.16 12.24 282.34 12.84C283.91 13.26 285.51 13.64 287.09 14.03C288.67 14.42 290.32 14.84 291.93 15.28C293.35 15.67 294.81 16 296.26 16.35C298.58 16.91 300.89 17.52 303.26 18.11C304.77 18.49 306.26 18.85 307.79 19.24C309.98 19.81 312.16 20.42 314.36 20.98C315.99 21.4 317.66 21.67 319.27 22.16C321.37 22.79 323.51 23.27 325.64 23.75C327.36 24.14 329.01 24.75 330.75 25.07C332.82 25.45 334.83 26.16 336.88 26.7C338.38 27.1 339.88 27.46 341.41 27.85C343.77 28.45 346.1 29.13 348.47 29.65C350.55 30.1 352.59 30.65 354.64 31.21C356.85 31.8 359.07 32.33 361.27 32.98C362.87 33.45 364.6 33.64 366.21 34.13C368.38 34.79 370.6 35.3 372.79 35.87C374.98 36.44 377.19 36.87 379.37 37.51C382.23 38.29 385.16 38.77 387.97 39.75C389.471 40.1809 390.993 40.5346 392.53 40.81C394.05 41.17 395.53 41.54 397.08 41.92C398.8 42.36 400.54 42.78 402.25 43.28C404.35 43.9 406.5 44.28 408.58 45C410.026 45.4961 411.516 45.8544 413.03 46.07C414.68 46.3 416.2 46.96 417.81 47.29C419.42 47.62 420.93 48.09 422.48 48.49C424.83 49.09 427.16 49.8 429.54 50.25C431.16 50.55 432.69 51.16 434.32 51.45C436.39 51.82 438.41 52.45 440.46 53.01L445.22 54.26C447.5 54.85 449.75 55.54 452.06 55.98C453.71 56.29 455.23 57.13 456.95 57.11C457.21 57.95 457.95 57.4 458.39 57.56C460.09 58.04 461.78 58.56 463.48 59C463.661 59.0814 463.857 59.1235 464.055 59.1235C464.253 59.1235 464.449 59.0814 464.63 59V59.48C463.35 59.13 462.22 59.87 461.07 60.12C460.172 60.2915 459.284 60.5118 458.41 60.78C456.23 61.51 453.91 61.83 451.67 62.39C448.82 63.1 445.98 63.92 443.13 64.64C441.52 65.05 439.88 65.33 438.26 65.73C436 66.3 433.76 66.95 431.5 67.52C429.95 67.92 428.37 68.21 426.81 68.6C424.56 69.17 422.31 69.79 420.06 70.37C418.58 70.74 417.06 71.08 415.6 71.44C413.9 71.86 412.21 72.35 410.51 72.73C408.81 73.11 407.25 73.59 405.58 73.89C403.91 74.19 402.3 74.83 400.58 75.15C398.86 75.47 397.52 75.81 396.02 76.26C393.66 76.96 391.24 77.38 388.87 78.03C386.76 78.61 384.59 79.03 382.47 79.61C379.47 80.41 376.47 81.06 373.47 81.86C371.31 82.44 369.1 82.86 366.95 83.48C364.02 84.31 361.01 84.78 358.1 85.7C356.01 86.37 353.81 86.7 351.69 87.28C348.69 88.09 345.69 88.63 342.69 89.51C340.972 90.0992 339.195 90.4982 337.39 90.7C335.97 90.8 334.69 91.49 333.29 91.76C331.647 92.0647 330.026 92.4823 328.44 93.01C325.54 94.01 322.5 94.49 319.55 95.27C317.21 95.89 314.8 96.35 312.45 96.95C310.1 97.55 307.88 98.01 305.63 98.7C303.38 99.39 301.28 99.7 299.11 100.26C296.94 100.82 294.58 101.59 292.28 101.99C289.83 102.41 287.51 103.3 285.05 103.7C282.98 104.03 280.99 104.82 278.95 105.34C276.7 105.91 274.45 106.48 272.18 106.91C271.529 107.157 270.861 107.355 270.18 107.5C269.7 107.66 269 107.07 268.73 107.92C267.73 107.72 266.83 108.36 265.86 108.53C264.47 108.78 263.11 109.17 261.72 109.45C259.64 109.89 257.64 110.71 255.56 111.1C253.95 111.41 252.4 111.88 250.82 112.25C248.63 112.76 246.43 113.25 244.27 113.81C242.46 114.31 240.64 114.81 238.8 115.17C237.216 115.49 235.656 115.917 234.13 116.45C232.056 117.084 229.837 117.056 227.78 116.37C226.22 115.97 224.68 115.54 223.12 115.14C220.72 114.53 218.32 113.96 215.93 113.33C213.84 112.77 211.71 112.33 209.62 111.76C206.62 110.94 203.53 110.32 200.5 109.47C198.5 108.9 196.35 108.54 194.32 107.92C191.4 107.03 188.41 106.49 185.47 105.67C183.32 105.07 181.08 104.67 178.93 104.07C176.01 103.19 172.99 102.75 170.08 101.79C168.08 101.12 165.86 100.86 163.79 100.26C160.79 99.4 157.68 98.9 154.69 97.94C152.64 97.28 150.49 96.94 148.39 96.44L138.54 94.02C136.01 93.39 133.46 92.84 130.97 92.1C128.19 91.26 125.35 90.67 122.55 89.89C120.32 89.27 118 88.82 115.75 88.25C113.5 87.68 111.12 87.25 108.86 86.49C106.6 85.73 104.36 85.49 102.15 84.89C98.95 84.01 95.7 83.34 92.5 82.48C90 81.81 87.5 81.28 84.97 80.58C82.15 79.78 79.31 79.07 76.48 78.36C74.22 77.79 71.93 77.28 69.66 76.71C66.83 75.99 63.99 75.25 61.15 74.54C58.9 73.98 56.64 73.39 54.37 72.87C51.52 72.21 48.67 71.48 45.84 70.71C44.32 70.3 42.74 69.96 41.2 69.55C38.94 68.96 36.62 68.55 34.38 67.82C32.9435 67.3613 31.4765 67.0038 29.99 66.75C28.23 66.43 26.56 65.75 24.82 65.41C23.08 65.07 21.55 64.74 19.96 64.27C18.37 63.8 16.78 63.37 15.19 63.03C13.6 62.69 12.19 62.26 10.65 61.91C8.96999 61.51 7.30999 60.91 5.64999 60.66C3.75999 60.32 2.02 59.21 0 59.52V59.02C1.22 59.36 2.2 58.45 3.38 58.38C4.36182 58.2081 5.32117 57.9263 6.23999 57.54C6.71999 57.37 7.41999 57.98 7.67999 57.11C9.39999 57.11 10.92 56.2 12.59 55.96C13.59 55.82 14.48 55.46 15.44 55.23C17.68 54.67 19.93 54.15 22.17 53.58C23.69 53.2 25.17 52.79 26.71 52.36C28.96 51.71 31.26 51.28 33.5 50.57C35.1 50.05 36.8 49.83 38.43 49.42C40.59 48.87 42.71 48.15 44.89 47.72C47.07 47.29 49.27 46.5 51.51 46.05C53.15 45.71 54.77 45.22 56.39 44.82C58.39 44.33 60.39 43.82 62.39 43.25C64.72 42.61 67.06 42.05 69.39 41.45C70.98 41.04 72.63 40.75 74.18 40.28C76.37 39.62 78.65 39.38 80.83 38.56C82.3056 38.0997 83.8085 37.7323 85.33 37.46C87.02 37.05 88.67 36.46 90.33 36.16C91.99 35.86 93.46 35.26 95.08 34.98C96.7 34.7 98.26 34.1 99.86 33.74C100.562 33.4988 101.281 33.3083 102.01 33.17C103.59 33.07 105.01 32.34 106.52 32.03C108.4 31.64 110.26 31.17 112.12 30.69C113.98 30.21 116.12 29.6 118.12 29.07L122.92 27.84C125.18 27.25 127.47 26.74 129.72 26.08C131.97 25.42 134.13 24.99 136.35 24.46C138.35 23.98 140.35 23.46 142.35 22.95C144.35 22.44 146.43 21.95 148.44 21.34C149.96 20.86 151.55 20.52 153.12 20.17C155.41 19.64 157.68 19.08 159.94 18.41C162.2 17.74 164.27 17.34 166.44 16.81C167.88 16.46 169.32 16.11 170.76 15.73C172.2 15.35 173.91 14.86 175.49 14.45C177.86 13.82 180.22 13.11 182.62 12.65C184.23 12.33 185.76 11.74 187.39 11.47C189.39 11.14 191.39 10.47 193.39 9.94L198.11 8.66998C200.47 8.02998 202.87 7.59997 205.21 6.87997C207.39 6.21997 209.64 5.87999 211.84 5.26999C213.28 4.90999 214.69 4.40999 216.14 4.07999C217.59 3.74999 219.33 3.35 220.92 2.91C223.82 2.11 226.75 1.39999 229.64 0.579986C230.16 0.429986 230.98 0.96 231.2 0L233.24 0.019989ZM18.24 59.28C19.24 59.61 20.24 59.88 21.24 60.18C23.46 60.85 25.73 61.3 27.96 61.91C29.41 62.31 30.9 62.62 32.36 63.01C34.11 63.47 35.86 63.91 37.61 64.35C39.08 64.72 40.55 65.05 42.01 65.43C43.63 65.85 45.27 66.24 46.89 66.71C48.51 67.18 50.15 67.71 51.81 68C53.29 68.3 54.71 68.88 56.21 69.09C57.91 69.34 59.51 69.94 61.21 70.33C63.5 70.88 65.79 71.48 68.09 72.03C69.64 72.4 71.18 72.82 72.73 73.19C74.28 73.56 75.73 74.03 77.22 74.39C78.71 74.75 80.28 75.08 81.78 75.5C83.28 75.92 84.93 76.38 86.51 76.73C88.68 77.23 90.81 77.9 92.97 78.4C95.32 78.94 97.64 79.59 99.97 80.16C101.56 80.55 103.19 80.84 104.75 81.29C107.63 82.14 110.55 82.77 113.44 83.55C114.83 83.93 116.25 84.22 117.64 84.6C120.04 85.25 122.47 85.8 124.88 86.42L130.76 87.96C132.42 88.39 134.08 88.84 135.76 89.24C137.44 89.64 138.86 90.03 140.43 90.37C142.5 90.82 144.49 91.69 146.57 92.05C148.31 92.35 150 92.86 151.7 93.26C154.7 93.97 157.7 94.73 160.7 95.59C161.64 95.86 162.61 95.86 163.53 96.19C165.656 96.8731 167.815 97.4472 170 97.91C171.51 98.28 173 98.64 174.51 99.03C176.22 99.47 177.93 99.94 179.65 100.33C181.15 100.68 182.65 101.04 184.15 101.44C185.65 101.84 187.27 102.23 188.82 102.68C190.37 103.13 191.82 103.4 193.33 103.78C195.66 104.37 197.97 104.99 200.33 105.58C201.84 105.97 203.33 106.31 204.89 106.7C207.15 107.28 209.41 107.89 211.68 108.47C213.23 108.86 214.8 109.18 216.35 109.58C218.46 110.13 220.53 110.81 222.66 111.28C224.37 111.66 226.03 112.28 227.73 112.61C229.18 112.93 230.62 113.61 232.14 113.18C233.34 112.82 234.55 112.55 235.76 112.28C237.27 111.94 238.76 111.54 240.27 111.15C242.523 110.57 244.773 110.003 247.02 109.45C248.58 109.07 250.15 108.71 251.7 108.3C254.08 107.67 256.49 107.1 258.88 106.51C260.35 106.14 261.88 105.83 263.28 105.4C266.14 104.55 269.05 103.97 271.93 103.19C273.39 102.8 274.85 102.41 276.34 102.13C278.08 101.79 279.78 101.26 281.49 100.8C282.98 100.39 284.49 100.03 286 99.7C288.18 99.21 290.31 98.51 292.47 97.96C294.09 97.55 295.74 97.29 297.36 96.88C299.56 96.32 301.74 95.65 303.94 95.09C305.94 94.59 307.88 94.19 309.85 93.7C311.82 93.21 313.56 92.7 315.42 92.21C317.04 91.81 318.7 91.57 320.31 91.12C322.8 90.43 325.31 89.81 327.82 89.19C328.61 88.99 329.42 88.86 330.21 88.65C331.76 88.25 333.3 87.77 334.86 87.39C336.42 87.01 338.06 86.75 339.62 86.29C341.428 85.7242 343.268 85.2668 345.13 84.92C346.55 84.66 347.89 84.09 349.33 83.84C350.77 83.59 352.42 82.92 353.99 82.6C355.56 82.28 357.13 81.76 358.74 81.48C360.58 81.16 362.37 80.59 364.18 80.12C365.61 79.74 367.04 79.42 368.46 79.06C370.17 78.64 371.87 78.15 373.59 77.75C375.1 77.39 376.59 77.04 378.1 76.66C379.61 76.28 381.38 75.77 383.02 75.35C384.66 74.93 386.12 74.65 387.66 74.26C389.2 73.87 390.91 73.35 392.55 72.97C394.19 72.59 395.64 72.2 397.2 71.86C399.38 71.39 401.48 70.57 403.67 70.14C405.86 69.71 408.31 69.14 410.57 68.48C413.36 67.71 416.18 67.07 418.98 66.34C421.26 65.75 423.6 65.26 425.88 64.65C428.67 63.92 431.47 63.15 434.28 62.49C437.09 61.83 440.05 60.94 442.99 60.36C443.99 60.16 445.22 60.18 446.08 59.36C445.878 59.1177 445.628 58.9198 445.346 58.7787C445.063 58.6376 444.755 58.5563 444.44 58.54C443.554 58.3873 442.676 58.1904 441.81 57.95C440.15 57.61 438.54 57.09 436.9 56.66C435.47 56.29 434.02 56.02 432.61 55.58C430.3 54.86 427.93 54.37 425.61 53.77L421.17 52.66C418.87 52.09 416.6 51.36 414.26 50.87C412.74 50.55 411.21 50.17 409.72 49.75C407.62 49.16 405.52 48.62 403.41 48.09C401.82 47.7 400.21 47.33 398.64 46.89C396.28 46.22 393.87 45.76 391.51 45.11C389.97 44.69 388.44 44.25 386.9 43.86C384.78 43.31 382.66 42.8 380.55 42.27L375.89 41.08C374.42 40.7 372.99 40.19 371.51 39.94C370.03 39.69 368.46 39.05 366.88 38.78C365.14 38.48 363.46 37.87 361.73 37.47C360.26 37.12 358.8 36.74 357.34 36.38C355.63 35.96 353.91 35.54 352.21 35.05C350.51 34.56 349.01 34.19 347.41 33.81C345.81 33.43 344.3 32.81 342.67 32.61C341.143 32.3253 339.634 31.9513 338.15 31.49C335.99 30.92 333.82 30.4 331.66 29.81C329.5 29.22 327.38 28.81 325.29 28.21C322.89 27.51 320.43 27.07 318.04 26.39C316.69 26 315.36 25.6 313.98 25.3C311.7 24.81 309.47 24.13 307.2 23.56C305.65 23.18 304.1 22.77 302.53 22.44C300.33 21.97 298.2 21.21 296 20.72C293.8 20.23 291.79 19.56 289.65 19.08C287.95 18.7 286.253 18.2733 284.56 17.8C282.99 17.36 281.41 16.91 279.81 16.56C278.45 16.26 277.15 15.65 275.81 15.49C274.12 15.28 272.58 14.62 270.93 14.31C268.71 13.91 266.57 13.06 264.36 12.59C262.73 12.25 261.1 11.85 259.51 11.42C257.29 10.83 255.02 10.42 252.81 9.69C251.25 9.2 249.59 9.02998 248.02 8.53998C245.77 7.83998 243.46 7.34998 241.18 6.75998C239.71 6.37998 238.24 5.98999 236.77 5.64999C234.92 5.22999 233.2 4.31998 231.15 4.78998C228.9 5.29998 226.7 5.94999 224.45 6.45999C222.2 6.96999 219.91 7.62998 217.65 8.22998C216.81 8.44998 215.94 8.56999 215.14 8.82999C213.53 9.34999 211.88 9.67999 210.25 10.11C208.62 10.54 207.25 10.82 205.71 11.21C204.17 11.6 202.47 12.21 200.82 12.5C199.17 12.79 197.7 13.2 196.19 13.63C193.26 14.48 190.28 15.09 187.35 15.91C185.95 16.3 184.53 16.6 183.14 16.98C181.42 17.46 179.68 17.86 177.95 18.31C176.43 18.7 174.88 19.02 173.4 19.48C170.63 20.33 167.78 20.79 165.02 21.64C163.53 22.1 162.02 22.37 160.47 22.75C158.18 23.33 155.89 23.95 153.59 24.53C152.04 24.92 150.43 25.15 148.93 25.67C146.22 26.6 143.42 27.13 140.67 27.86C138.43 28.45 136.18 29 133.94 29.58C132.548 30.0282 131.133 30.3988 129.7 30.69C128.07 30.93 126.53 31.5 124.95 31.87C123.37 32.24 121.73 32.71 120.13 33.1C118.53 33.49 117.03 33.87 115.5 34.25L110.26 35.56L105.78 36.72C104.08 37.15 102.39 37.58 100.69 37.99C99.22 38.35 97.69 38.67 96.3 39.1C94.06 39.77 91.8 40.28 89.55 40.87C88.01 41.28 86.49 41.81 84.92 42.1C83.35 42.39 82.09 43.05 80.61 43.2C79.0322 43.4957 77.4729 43.883 75.94 44.36C73.59 44.88 71.27 45.58 68.94 46.13C67.42 46.48 65.89 46.79 64.4 47.26C62.21 47.95 59.95 48.37 57.74 48.98C56.13 49.43 54.5 49.83 52.88 50.25L46.54 51.87L41.78 53.11C40.39 53.47 39.02 53.96 37.61 54.19C35.35 54.55 33.19 55.28 31 55.82C28.81 56.36 26.58 56.91 24.39 57.56C22.31 58.002 20.2621 58.5833 18.26 59.3L18.24 59.28Z" fill="#F59B00"/>
<path d="M406.5 100.6C406.516 102.368 406.183 104.121 405.52 105.759C404.857 107.398 403.878 108.89 402.638 110.149C401.398 111.409 399.921 112.412 398.293 113.1C396.665 113.788 394.917 114.148 393.15 114.16C391.315 114.26 389.48 113.985 387.755 113.352C386.03 112.718 384.452 111.74 383.118 110.477C381.784 109.213 380.722 107.691 379.995 106.003C379.269 104.316 378.895 102.497 378.895 100.66C378.895 98.8227 379.269 97.0046 379.995 95.3168C380.722 93.629 381.784 92.107 383.118 90.8436C384.452 89.5802 386.03 88.6019 387.755 87.9686C389.48 87.3353 391.315 87.0602 393.15 87.1601C400.29 87.1201 406.78 93.1701 406.5 100.6ZM393.02 112.02C399.57 112.38 404.37 106.7 404.6 101.13C404.683 98.1586 403.627 95.2678 401.65 93.0485C399.672 90.8291 396.921 89.449 393.96 89.1901C392.435 89.0606 390.899 89.2378 389.443 89.7112C387.987 90.1846 386.641 90.9446 385.483 91.9464C384.326 92.9482 383.381 94.1717 382.703 95.5445C382.026 96.9174 381.631 98.412 381.54 99.9401C381.427 101.505 381.642 103.076 382.17 104.552C382.699 106.029 383.531 107.379 384.611 108.516C385.692 109.653 386.998 110.552 388.446 111.156C389.894 111.759 391.452 112.053 393.02 112.02Z" fill="#F59B00"/>
<path d="M268.75 108.02C269.02 107.17 269.75 107.76 270.2 107.6C269.8 108.02 269.62 109.14 268.75 108.02Z" fill="#FFFAF6"/>
<path d="M7.65997 57.1501C7.39997 58.0201 6.65997 57.4101 6.21997 57.5801C6.60997 57.1401 6.79997 56.0201 7.65997 57.1501Z" fill="#FFFAF6"/>
<path d="M458.34 57.58C457.86 57.42 457.16 57.97 456.9 57.13C457.51 56.46 457.63 56.5 458.34 57.58Z" fill="#FFFAF6"/>
<path d="M18.2599 59.3001C20.2193 58.5855 22.2237 58.0009 24.2599 57.5501C26.4499 56.9001 28.6701 56.3601 30.8701 55.8101C33.0701 55.2601 35.22 54.5401 37.48 54.1801C38.89 53.9501 40.2601 53.46 41.6501 53.1L46.41 51.86L52.75 50.2401C54.37 49.8201 56.0001 49.4201 57.6101 48.9701C59.8201 48.3601 62.08 47.9701 64.27 47.2501C65.76 46.7801 67.27 46.4701 68.81 46.1201C71.16 45.5701 73.48 44.87 75.81 44.35C77.3428 43.8731 78.9022 43.4858 80.4801 43.1901C81.9601 43.0401 83.3199 42.3601 84.7899 42.0901C86.2599 41.8201 87.88 41.27 89.42 40.86C91.67 40.27 93.93 39.7601 96.17 39.0901C97.6 38.6601 99.0901 38.34 100.56 37.98C102.26 37.57 103.95 37.1401 105.65 36.7101L110.13 35.5501L115.37 34.2401C116.9 33.8601 118.45 33.4601 120 33.0901C121.55 32.7201 123.21 32.24 124.82 31.86C126.43 31.48 127.94 30.9201 129.57 30.6801C131.003 30.3889 132.418 30.0183 133.81 29.57C136.05 28.99 138.3 28.44 140.54 27.85C143.29 27.12 146.09 26.5901 148.8 25.6601C150.3 25.1401 151.91 24.9101 153.46 24.5201C155.76 23.9401 158.05 23.3201 160.34 22.7401C161.86 22.3601 163.4 22.09 164.89 21.63C167.65 20.78 170.5 20.3201 173.27 19.4701C174.75 19.0101 176.27 18.6901 177.82 18.3001C179.55 17.8501 181.29 17.4501 183.01 16.9701C184.4 16.5901 185.82 16.2901 187.22 15.9001C190.15 15.0801 193.13 14.4701 196.06 13.6201C197.57 13.1901 199.12 12.8001 200.69 12.4901C202.26 12.1801 203.95 11.62 205.58 11.2C207.21 10.78 208.58 10.49 210.12 10.1C211.66 9.71006 213.4 9.34006 215.01 8.82006C215.81 8.56006 216.68 8.44008 217.52 8.22008C219.78 7.62008 222.05 6.97006 224.32 6.45007C226.59 5.93007 228.77 5.29008 231.02 4.78008C233.02 4.31008 234.79 5.22007 236.64 5.64007C238.11 5.98007 239.58 6.37008 241.05 6.75008C243.33 7.34008 245.64 7.83008 247.89 8.53008C249.46 9.02008 251.12 9.19008 252.68 9.68008C254.89 10.3701 257.16 10.8201 259.38 11.4101C260.97 11.8401 262.6 12.2401 264.23 12.5801C266.44 13.0501 268.58 13.9001 270.8 14.3001C272.45 14.6101 273.99 15.3 275.68 15.48C277.03 15.64 278.33 16.2501 279.68 16.5501C281.28 16.9001 282.86 17.35 284.43 17.79C286 18.23 287.82 18.69 289.52 19.07C291.66 19.55 293.73 20.2401 295.87 20.7101C298.01 21.1801 300.2 21.9601 302.4 22.4301C303.97 22.7601 305.52 23.1701 307.07 23.5501C309.34 24.1201 311.57 24.8 313.85 25.29C315.23 25.59 316.56 25.99 317.91 26.38C320.3 27.06 322.76 27.5 325.16 28.2C327.25 28.81 329.42 29.2001 331.53 29.8001C333.64 30.4001 335.86 30.91 338.02 31.48C339.504 31.9414 341.013 32.3153 342.54 32.6C344.17 32.83 345.7 33.4201 347.28 33.8001C348.86 34.1801 350.5 34.57 352.08 35.04C353.66 35.51 355.5 35.9501 357.21 36.3701C358.67 36.7301 360.13 37.1101 361.6 37.4601C363.33 37.8601 365.01 38.4601 366.75 38.7701C368.33 39.0401 369.75 39.6701 371.38 39.9301C373.01 40.1901 374.29 40.69 375.76 41.07L380.42 42.26C382.53 42.79 384.65 43.26 386.77 43.85C388.31 44.24 389.84 44.68 391.38 45.1C393.74 45.75 396.15 46.21 398.51 46.88C400.08 47.32 401.69 47.6901 403.28 48.0801C405.39 48.6101 407.49 49.1501 409.59 49.7401C411.08 50.1601 412.59 50.54 414.13 50.86C416.47 51.35 418.74 52.0801 421.04 52.6501L425.48 53.76C427.82 54.36 430.19 54.85 432.48 55.57C433.89 56.01 435.34 56.2801 436.77 56.6501C438.41 57.0801 440.02 57.6001 441.68 57.9401C442.546 58.1805 443.424 58.3774 444.31 58.5301C444.625 58.5464 444.934 58.6276 445.216 58.7687C445.498 58.9098 445.748 59.1078 445.95 59.35C445.09 60.2 443.87 60.18 442.86 60.35C439.92 60.93 437.06 61.8 434.15 62.48C431.24 63.16 428.54 63.91 425.75 64.64C423.47 65.25 421.13 65.7401 418.85 66.3301C416.05 67.0601 413.23 67.7001 410.44 68.4701C408.18 69.1101 405.87 69.68 403.54 70.13C401.21 70.58 399.25 71.38 397.07 71.85C395.51 72.19 393.97 72.5901 392.42 72.9601C390.87 73.3301 389.17 73.8401 387.53 74.2501C385.89 74.6601 384.43 74.9601 382.89 75.3401C381.35 75.7201 379.62 76.2301 377.97 76.6501C376.32 77.0701 374.97 77.3801 373.46 77.7401C371.74 78.1401 370.04 78.6301 368.33 79.0501C366.91 79.4101 365.48 79.73 364.05 80.11C362.24 80.58 360.45 81.1101 358.61 81.4701C357 81.7501 355.46 82.2701 353.86 82.5901C352.26 82.9101 350.78 83.5901 349.2 83.8301C347.62 84.0701 346.42 84.6501 345 84.9101C343.138 85.2569 341.298 85.7143 339.49 86.2801C337.93 86.7401 336.31 86.98 334.73 87.38C333.15 87.78 331.63 88.24 330.08 88.64C329.29 88.85 328.48 88.9801 327.69 89.1801C325.18 89.8001 322.69 90.42 320.18 91.11C318.57 91.56 316.91 91.8 315.29 92.2C313.43 92.66 311.58 93.2001 309.72 93.6901C307.86 94.1801 305.72 94.5801 303.81 95.0801C301.61 95.6401 299.43 96.3101 297.23 96.8701C295.61 97.2801 293.96 97.54 292.34 97.95C290.18 98.5 288.05 99.2001 285.87 99.6901C284.36 100.02 282.87 100.38 281.36 100.79C279.65 101.25 277.95 101.79 276.21 102.12C274.72 102.4 273.21 102.79 271.8 103.18C268.92 103.96 266.01 104.54 263.15 105.39C261.71 105.82 260.22 106.13 258.75 106.5C256.36 107.09 253.95 107.66 251.57 108.29C250.02 108.7 248.45 109.06 246.89 109.44C244.643 109.987 242.393 110.553 240.14 111.14C238.65 111.53 237.14 111.93 235.63 112.27C234.42 112.54 233.21 112.81 232.01 113.17C230.49 113.63 229.01 112.92 227.6 112.6C225.9 112.22 224.24 111.65 222.53 111.27C220.4 110.8 218.33 110.12 216.22 109.57C214.67 109.17 213.1 108.85 211.55 108.46C209.28 107.88 207.02 107.27 204.76 106.69C203.24 106.3 201.71 105.96 200.2 105.57C197.87 104.98 195.56 104.36 193.2 103.77C191.7 103.39 190.2 103.11 188.69 102.67C187.18 102.23 185.57 101.85 184.02 101.43C182.47 101.01 181.02 100.67 179.52 100.32C177.8 99.93 176.09 99.4601 174.38 99.0201C172.89 98.6301 171.38 98.2701 169.87 97.9001C167.686 97.4373 165.526 96.8632 163.4 96.1801C162.48 95.8501 161.51 95.8501 160.57 95.5801C157.57 94.7201 154.57 93.9601 151.57 93.2501C149.87 92.8501 148.18 92.34 146.44 92.04C144.36 91.68 142.37 90.81 140.3 90.36C138.73 90.02 137.18 89.6 135.63 89.23C134.08 88.86 132.3 88.38 130.63 87.95L124.75 86.4101C122.34 85.7901 119.91 85.2401 117.51 84.5901C116.12 84.2101 114.7 83.92 113.31 83.54C110.42 82.76 107.5 82.1301 104.62 81.2801C103.06 80.8301 101.43 80.5401 99.84 80.1501C97.5 79.5801 95.18 78.93 92.84 78.39C90.68 77.89 88.5501 77.2201 86.3801 76.7201C84.8001 76.3701 83.2201 75.9301 81.6501 75.4901C80.0801 75.0501 78.65 74.74 77.09 74.38C75.53 74.02 74.09 73.5401 72.6 73.1801C71.11 72.8201 69.51 72.3901 67.96 72.0201C65.66 71.4701 63.37 70.87 61.08 70.32C59.42 69.93 57.82 69.3201 56.08 69.0801C54.58 68.8701 53.16 68.2901 51.68 67.9901C50.02 67.6601 48.3899 67.16 46.7599 66.7C45.1299 66.24 43.5001 65.84 41.8801 65.42C40.4201 65.04 38.95 64.7101 37.48 64.3401C35.73 63.9001 33.98 63.4601 32.23 63.0001C30.77 62.6101 29.28 62.3001 27.83 61.9001C25.6 61.2901 23.3301 60.84 21.1101 60.17C20.2901 59.9 19.2799 59.6301 18.2599 59.3001ZM37.2599 58.89C38.0519 58.9447 38.838 59.0652 39.6101 59.2501C41.7501 59.9701 43.95 60.4401 46.14 60.9901C47.69 61.3901 49.29 61.6301 50.79 62.1601C52.7801 62.824 54.8109 63.3584 56.87 63.76C59.12 64.23 61.24 65.12 63.54 65.45C65.84 65.78 67.8001 66.69 69.9701 67.14C72.8901 67.75 75.7501 68.6 78.6501 69.29C81.3801 69.94 84.12 70.6301 86.81 71.4701C88.98 72.1501 91.2701 72.4701 93.4601 73.0601C94.2601 73.2901 95.0801 73.3701 95.8501 73.6501C97.9388 74.3338 100.066 74.8948 102.22 75.3301C103.77 75.7101 105.29 76.22 106.87 76.51C108.45 76.8 110.19 77.35 111.87 77.79C113.55 78.23 115.09 78.6701 116.7 79.0901C118.7 79.6201 120.76 80.23 122.83 80.6C124.46 80.89 126.01 81.4201 127.61 81.8101C129.91 82.3567 132.207 82.9401 134.5 83.5601C136.08 83.9901 137.65 84.4201 139.23 84.8301C141.23 85.3601 143.29 85.99 145.36 86.36C146.99 86.65 148.52 87.2801 150.14 87.5901C151.76 87.9001 153.36 88.4001 154.98 88.8001C156.6 89.2001 158.08 89.56 159.61 89.98C161.76 90.57 163.92 91.1001 166.07 91.6601C167.65 92.0601 169.24 92.39 170.81 92.79C172.38 93.19 173.91 93.79 175.49 94.07C177.07 94.35 178.69 94.77 180.24 95.23C182.54 95.9 184.9 96.33 187.24 97.01C188.83 97.48 190.45 97.9 192.06 98.32C194.06 98.84 196.15 99.32 198.19 99.85L204.96 101.6C206.96 102.12 208.96 102.73 210.96 103.15C212.6 103.49 214.25 103.89 215.86 104.32C218.71 105.09 221.61 105.7 224.43 106.56C226.009 107.1 227.623 107.535 229.26 107.86C230.56 108.07 231.78 108.79 233.26 108.12C234.65 107.601 236.092 107.232 237.56 107.02C238.96 106.75 240.36 106.37 241.74 106.02C243.41 105.56 245.09 105.15 246.74 104.73C248.39 104.31 249.82 103.96 251.37 103.6C253.09 103.19 254.82 102.73 256.54 102.28C258 101.9 259.49 101.61 260.93 101.2C262.37 100.79 264.04 100.4 265.59 99.95C267.14 99.5 268.87 99.3101 270.47 98.8401C272.07 98.3701 273.98 97.93 275.74 97.48C277.16 97.12 278.61 96.8 280.02 96.48C281.72 96.02 283.43 95.6101 285.13 95.1601C286.63 94.7801 288.13 94.5001 289.64 94.0501C291.78 93.4201 293.94 92.8701 296.09 92.3701C298.4 91.8301 300.72 91.29 303 90.7C305.78 89.98 308.58 89.3001 311.35 88.5201C313.9 87.7901 316.51 87.2401 319.09 86.5801C321.67 85.9201 324.16 85.29 326.7 84.67C329.24 84.05 331.87 83.41 334.45 82.73C337.32 81.98 340.25 81.4401 343.11 80.6601C343.84 80.5468 344.561 80.3865 345.27 80.1801C346.948 79.6274 348.658 79.1765 350.39 78.8301C351.89 78.3901 353.39 78.0501 354.93 77.7201C356.47 77.3901 357.86 76.7701 359.36 76.5001C361.61 76.0901 363.79 75.42 366.01 74.92C368.23 74.42 370.61 73.54 372.95 73.13C375.29 72.72 377.5 72.04 379.75 71.48C382.54 70.77 385.35 70.09 388.13 69.29C390.65 68.57 393.24 68.04 395.78 67.36C398.67 66.59 401.58 65.8901 404.49 65.1801C406.92 64.5901 409.38 64.0801 411.8 63.4301C413.2 63.0501 414.6 62.7101 416.02 62.4301C417.82 62.0201 419.6 61.4301 421.41 61.0601C423.03 60.7001 424.61 60.1701 426.2 59.7101C426.4 59.6601 426.64 59.6401 426.58 59.3701C426.56 59.2952 426.522 59.2263 426.47 59.1689C426.418 59.1116 426.353 59.0674 426.28 59.04C424.743 58.5217 423.169 58.1238 421.57 57.85C419.91 57.67 418.41 56.9801 416.79 56.6801C414.57 56.2601 412.41 55.4901 410.21 54.9401C408.01 54.3901 406.05 53.9901 403.98 53.4901C402.55 53.1501 401.16 52.6901 399.7 52.4101C398.35 52.1458 397.015 51.812 395.7 51.4101C394.147 50.8603 392.564 50.3963 390.96 50.0201C388.65 49.5801 386.44 48.83 384.15 48.36C381.86 47.89 379.35 47.2101 376.99 46.5201C376.05 46.2401 375.07 46.2401 374.16 45.9301C372.581 45.4148 370.975 44.9842 369.35 44.64C367.88 44.3 366.35 43.9601 364.95 43.5501C363.55 43.1401 361.85 42.65 360.3 42.36C358.75 42.07 357.07 41.48 355.42 41.17C353.2 40.75 351.04 39.9901 348.84 39.4301C346.64 38.8701 344.68 38.43 342.59 37.98C341.19 37.66 339.84 37.21 338.43 36.92C337.02 36.63 335.58 36.19 334.14 35.92C332.54 35.56 330.99 34.9201 329.38 34.6901C327.77 34.4601 326.24 33.8001 324.62 33.5201C323 33.2401 321.26 32.6301 319.62 32.2401C318.11 31.8901 316.62 31.4301 315.1 31.1601C313.58 30.8901 311.86 30.26 310.22 29.88C308.58 29.5 307.09 29.1901 305.57 28.7501C303.4 28.1201 301.2 27.57 299 27.07C297.38 26.69 295.76 26.25 294.13 25.88C290.97 25.17 287.84 24.3 284.69 23.51C283.79 23.28 282.87 23.2101 281.98 22.9301C280.43 22.4501 278.85 22.07 277.28 21.67C275.71 21.27 274.28 20.9601 272.76 20.5801C271.24 20.2001 269.61 19.5801 268 19.3401C266.39 19.1001 264.86 18.44 263.24 18.17C261.62 17.9 259.89 17.27 258.19 16.89C256.68 16.54 255.19 16.0801 253.67 15.8101C252.15 15.5401 250.43 14.9101 248.79 14.5301C247.15 14.1501 245.68 13.8 244.14 13.42C241.6 12.79 239.14 12.0201 236.52 11.5501C235.786 11.44 235.067 11.2419 234.38 10.9601C232.479 10.1294 230.332 10.0578 228.38 10.76C225.46 11.7 222.44 12.18 219.52 13.07C217.96 13.54 216.35 13.8 214.78 14.26C213.35 14.7388 211.886 15.1099 210.4 15.3701C208.64 15.6001 206.98 16.2001 205.27 16.5801C202.89 17.1201 200.52 17.75 198.15 18.35C196.55 18.75 194.96 19.23 193.36 19.64C191.36 20.16 189.3 20.7601 187.24 21.1201C185.54 21.4301 183.9 21.9501 182.24 22.3401C179.88 22.9001 177.53 23.56 175.16 24.1C173.54 24.47 171.95 24.98 170.33 25.38C168.33 25.86 166.33 26.4701 164.33 26.8701C162.61 27.2101 160.91 27.7 159.21 28.08C156.83 28.63 154.46 29.25 152.09 29.86C150.55 30.26 149.03 30.68 147.48 31.01C145.36 31.46 143.31 32.23 141.19 32.64C139.07 33.05 136.84 33.8901 134.59 34.2501C132.97 34.5101 131.42 35.1901 129.81 35.5201C128.2 35.8501 126.35 36.2701 124.67 36.7101C122.62 37.2501 120.57 37.91 118.52 38.35C116.23 38.83 114 39.57 111.71 40.04C110.752 40.1802 109.806 40.3941 108.88 40.6801C106.903 41.3693 104.873 41.8944 102.81 42.2501C101.19 42.5301 99.62 43.03 98.05 43.42C95.76 44 93.43 44.42 91.16 45.14C89.52 45.63 87.82 45.91 86.16 46.35C84.07 46.91 81.9801 47.5401 79.8701 47.9701C77.7601 48.4001 75.4501 49.24 73.1601 49.6C71.382 49.9475 69.6257 50.3983 67.9001 50.95C66.3201 51.39 64.67 51.6201 63.12 52.0801C61.12 52.6801 59.02 53.2701 56.96 53.7101C55.33 54.0701 53.69 54.49 52.09 54.92C49.88 55.5 47.63 55.9201 45.43 56.5801C43.0554 57.3287 40.6241 57.8838 38.16 58.2401C37.9614 58.2521 37.77 58.3194 37.6075 58.4342C37.445 58.549 37.3178 58.7069 37.2401 58.89H37.2599Z" fill="#FFFAF6"/>
<path d="M393.02 112.02C391.454 112.052 389.899 111.757 388.454 111.154C387.009 110.551 385.705 109.654 384.626 108.519C383.546 107.384 382.716 106.037 382.186 104.564C381.656 103.09 381.44 101.522 381.55 99.96C381.638 98.4311 382.031 96.9352 382.707 95.5607C383.382 94.1863 384.326 92.961 385.483 91.9572C386.64 90.9534 387.986 90.1914 389.442 89.7161C390.897 89.2409 392.434 89.062 393.96 89.19C396.916 89.4512 399.661 90.8295 401.636 93.0443C403.611 95.2591 404.668 98.1435 404.59 101.11C404.37 106.68 399.57 112.36 393.02 112.02ZM396.33 101.1C397.151 100.931 397.889 100.484 398.417 99.8329C398.946 99.1822 399.233 98.3685 399.23 97.53C399.35 95.09 397.52 93.53 394.87 93.26C392.87 93.06 390.87 93.26 388.87 93.15C387.95 93.15 387.73 93.4 387.74 94.28C387.78 98.4667 387.78 102.66 387.74 106.86C387.74 107.74 387.98 108.01 388.88 108.03C389.94 108.03 390.35 107.71 390.2 106.66C390.175 106.26 390.175 105.86 390.2 105.46C390.2 101.87 390.2 101.87 393.79 102.25H393.96C394.651 102.306 395.295 102.624 395.76 103.139C396.224 103.654 396.475 104.327 396.46 105.02C396.46 105.62 396.46 106.22 396.46 106.82C396.432 106.98 396.444 107.144 396.494 107.298C396.545 107.452 396.631 107.592 396.748 107.705C396.864 107.818 397.006 107.902 397.161 107.948C397.316 107.994 397.481 108.002 397.64 107.97H399C398.47 105.51 399.8 102.41 396.33 101.08V101.1Z" fill="#FFFAF6"/>
<path d="M37.24 58.89C37.305 58.7073 37.4183 58.5456 37.5681 58.4223C37.7178 58.299 37.8982 58.2187 38.09 58.1901C40.5542 57.8338 42.9855 57.2787 45.36 56.5301C47.56 55.8901 49.81 55.4501 52.02 54.8701C53.62 54.4401 55.26 54.0201 56.89 53.6601C58.95 53.2201 61.01 52.6601 63.05 52.0301C64.6 51.5701 66.25 51.3401 67.83 50.9001C69.5557 50.3483 71.312 49.8976 73.09 49.55C75.38 49.19 77.54 48.38 79.8 47.92C82.06 47.46 84 46.86 86.09 46.3C87.74 45.86 89.44 45.5801 91.09 45.0901C93.36 44.4101 95.69 43.9501 97.98 43.3701C99.55 42.9801 101.12 42.48 102.74 42.2C104.803 41.8444 106.833 41.3192 108.81 40.63C109.735 40.3441 110.682 40.1302 111.64 39.9901C113.93 39.5201 116.16 38.78 118.45 38.3C120.45 37.86 122.55 37.2001 124.6 36.6601C126.28 36.2201 128.01 35.8201 129.74 35.4701C131.47 35.1201 132.9 34.47 134.52 34.2C136.77 33.84 138.89 33.0201 141.12 32.5901C143.35 32.1601 145.29 31.4101 147.41 30.9601C148.96 30.6301 150.48 30.2101 152.02 29.8101C154.39 29.2001 156.76 28.5801 159.14 28.0301C160.84 27.6501 162.54 27.16 164.26 26.82C166.26 26.42 168.26 25.82 170.26 25.33C171.88 24.93 173.47 24.42 175.09 24.05C177.46 23.51 179.81 22.85 182.17 22.29C183.84 21.9 185.48 21.38 187.17 21.07C189.23 20.71 191.26 20.0701 193.29 19.5901C194.89 19.1801 196.48 18.7 198.08 18.3C200.45 17.7 202.82 17.0701 205.2 16.5301C206.91 16.1501 208.57 15.53 210.33 15.32C211.816 15.0599 213.28 14.6888 214.71 14.2101C216.28 13.7501 217.89 13.49 219.45 13.02C222.37 12.13 225.39 11.6501 228.31 10.7101C230.262 10.0078 232.409 10.0794 234.31 10.9101C234.997 11.1919 235.716 11.39 236.45 11.5001C239.03 11.9701 241.53 12.7401 244.07 13.3701C245.61 13.7501 247.17 14.12 248.72 14.48C250.27 14.84 251.95 15.48 253.6 15.76C255.25 16.04 256.6 16.4901 258.12 16.8401C259.82 17.2201 261.46 17.8401 263.17 18.1201C264.88 18.4001 266.31 19.02 267.93 19.29C269.55 19.56 271.1 20.1201 272.69 20.5301C274.28 20.9401 275.69 21.2401 277.21 21.6201C278.73 22.0001 280.36 22.4 281.91 22.88C282.8 23.16 283.72 23.2301 284.62 23.4601C287.77 24.2501 290.9 25.12 294.06 25.83C295.69 26.2 297.31 26.64 298.93 27.02C301.13 27.52 303.33 28.07 305.5 28.7C307.02 29.14 308.59 29.47 310.15 29.83C311.71 30.19 313.38 30.83 315.03 31.11C316.68 31.39 318.03 31.8401 319.55 32.1901C321.24 32.5801 322.89 33.1901 324.55 33.4701C326.21 33.7501 327.69 34.37 329.31 34.64C330.93 34.91 332.47 35.5101 334.07 35.8701C335.51 36.1901 336.92 36.6301 338.36 36.8701C339.8 37.1101 341.12 37.6101 342.52 37.9301C344.61 38.4001 346.7 38.86 348.77 39.38C350.84 39.9 353.13 40.7001 355.35 41.1201C357 41.4301 358.58 41.9901 360.23 42.3101C361.88 42.6301 363.34 43.0601 364.88 43.5001C366.42 43.9401 367.81 44.2501 369.28 44.5901C370.905 44.9342 372.511 45.3648 374.09 45.88C375 46.19 375.98 46.1901 376.92 46.4701C379.28 47.1601 381.68 47.8101 384.08 48.3101C386.48 48.8101 388.58 49.5301 390.89 49.9701C392.498 50.293 394.087 50.7036 395.65 51.2C396.965 51.602 398.3 51.9358 399.65 52.2C401.11 52.48 402.5 52.9401 403.93 53.2801C406 53.7801 408.09 54.21 410.16 54.73C412.23 55.25 414.52 56.0501 416.74 56.4701C418.36 56.7701 419.86 57.47 421.52 57.64C423.119 57.9139 424.693 58.3117 426.23 58.83C426.303 58.8574 426.368 58.9016 426.42 58.959C426.472 59.0163 426.51 59.0852 426.53 59.1601C426.59 59.4301 426.35 59.4501 426.15 59.5001C424.56 59.9601 422.98 60.5 421.36 60.85C419.55 61.26 417.77 61.8501 415.97 62.2201C414.55 62.5401 413.15 62.8801 411.75 63.2201C409.33 63.8701 406.87 64.3801 404.44 64.9701C401.53 65.6801 398.62 66.3801 395.73 67.1501C393.19 67.8301 390.6 68.36 388.08 69.08C385.3 69.88 382.49 70.56 379.7 71.27C377.45 71.83 375.21 72.51 372.9 72.92C370.59 73.33 368.29 74.18 365.96 74.71C363.63 75.24 361.56 75.88 359.31 76.29C357.81 76.56 356.38 77.18 354.88 77.51C353.38 77.84 351.88 78.1801 350.34 78.6201C348.608 78.9665 346.898 79.4174 345.22 79.9701C344.511 80.1765 343.79 80.3368 343.06 80.45C340.2 81.23 337.27 81.77 334.4 82.52C331.82 83.2 329.23 83.82 326.65 84.46C324.07 85.1 321.57 85.7201 319.04 86.3701C316.51 87.0201 313.85 87.5801 311.3 88.3101C308.53 89.0901 305.73 89.77 302.95 90.49C300.67 91.08 298.35 91.6201 296.04 92.1601C293.89 92.6601 291.73 93.2101 289.59 93.8401C288.12 94.2901 286.59 94.57 285.08 94.95C283.38 95.4 281.67 95.81 279.97 96.27C278.56 96.64 277.11 96.96 275.69 97.27C273.93 97.72 272.16 98.1 270.42 98.63C268.68 99.16 267.13 99.27 265.54 99.74C263.95 100.21 262.43 100.55 260.88 100.99C259.33 101.43 257.95 101.69 256.49 102.07C254.77 102.52 253.04 102.98 251.32 103.39C249.77 103.75 248.23 104.13 246.69 104.52C245.15 104.91 243.33 105.35 241.69 105.81C240.31 106.18 238.91 106.56 237.51 106.81C236.016 107.03 234.551 107.412 233.14 107.95C231.64 108.62 230.42 107.9 229.14 107.69C227.503 107.365 225.889 106.93 224.31 106.39C221.49 105.53 218.59 104.92 215.74 104.15C214.13 103.72 212.48 103.32 210.84 102.98C208.84 102.56 206.84 101.98 204.84 101.43L198.07 99.68C196.07 99.16 193.98 98.6801 191.94 98.1501C190.33 97.7301 188.71 97.3101 187.12 96.8401C184.82 96.1601 182.46 95.7301 180.12 95.0601C178.57 94.6001 176.97 94.2201 175.37 93.9001C173.77 93.5801 172.26 93.0301 170.69 92.6201C169.12 92.2101 167.53 91.89 165.95 91.49C163.8 90.93 161.64 90.4001 159.49 89.8101C157.96 89.3901 156.4 89.02 154.86 88.63C153.32 88.24 151.65 87.73 150.02 87.42C148.39 87.11 146.87 86.4801 145.24 86.1901C143.17 85.8201 141.15 85.1901 139.11 84.6601C137.53 84.2501 135.96 83.82 134.38 83.39C132.087 82.77 129.79 82.1867 127.49 81.64C125.89 81.25 124.34 80.72 122.71 80.43C120.64 80.06 118.62 79.43 116.58 78.92C114.97 78.5 113.36 78.0501 111.75 77.6201C110.14 77.1901 108.45 76.6201 106.75 76.3401C105.05 76.0601 103.65 75.5401 102.1 75.1601C99.9458 74.7248 97.8188 74.1638 95.73 73.48C94.96 73.2 94.14 73.12 93.34 72.89C91.15 72.27 88.86 71.98 86.69 71.3C84 70.46 81.26 69.7701 78.53 69.1201C75.63 68.4301 72.77 67.5801 69.85 66.9701C67.68 66.5201 65.6 65.5901 63.42 65.2801C61.24 64.9701 59 64.0601 56.75 63.5901C54.691 63.1885 52.66 62.654 50.67 61.9901C49.17 61.4601 47.57 61.22 46.02 60.82C43.83 60.27 41.63 59.82 39.49 59.08C38.7462 58.9576 37.9939 58.8941 37.24 58.89ZM134.37 38.48C133.03 38.48 131.69 38.5601 130.37 38.5301C129.69 38.5301 129.56 38.83 129.62 39.39C129.19 42.62 127.62 45.4601 126.45 48.4401C125.14 51.8801 123.58 55.23 122.14 58.63C121.45 60.26 120.76 61.9 120.09 63.54C119.42 65.18 118.73 66.89 118.09 68.54C117.981 68.8699 117.784 69.1638 117.52 69.39C116.538 70.187 115.304 70.6088 114.04 70.58C113.53 70.58 112.78 70.38 112.84 71.3C112.9 72.22 112.33 73.4401 113.57 73.7801C114.81 74.1201 116.19 74.5501 117.52 74.7801C119.42 75.1601 121.28 75.6301 123.14 76.1601C123.62 76.3001 124.37 76.66 124.69 75.85C125.09 74.85 124.69 73.56 123.91 73.39C123.391 73.3109 122.913 73.0617 122.551 72.6816C122.189 72.3016 121.964 71.8121 121.91 71.29C121.735 69.516 122.06 67.7283 122.85 66.13C123.07 65.63 123.42 65.7001 123.71 65.7801C125.42 66.2001 127.16 66.4401 128.88 66.7801C131.28 67.2601 133.68 67.7801 136.12 68.0901C136.49 68.0844 136.852 68.1927 137.158 68.4002C137.464 68.6078 137.699 68.9045 137.83 69.2501C138.38 70.6601 138.83 72.1 139.27 73.55C139.87 75.55 139.77 75.99 137.95 76.68C137.52 76.84 137.17 76.9001 137.31 77.4101C137.5 78.1501 136.83 79.03 137.79 79.67C138.52 80.15 139.32 80 140.06 80.21C141.72 80.69 143.39 81.1501 145.06 81.5301C146.6 81.8801 148.12 82.35 149.69 82.64C151.26 82.93 152.79 83.59 154.38 83.86C156.69 84.25 158.9 85.02 161.18 85.51C163.46 86 165.96 86.8101 168.39 87.3101C169.73 87.5801 169.8 87.4401 169.52 86.0301C169.45 85.7544 169.45 85.4657 169.52 85.1901C170 83.8401 169.14 83.43 168.11 83.08C167.344 82.8954 166.668 82.4458 166.201 81.8108C165.735 81.1758 165.507 80.3963 165.56 79.61C165.574 76.6924 165.865 73.7826 166.43 70.92C166.77 68.54 167.22 66.1801 167.59 63.8101C167.76 62.7301 167.82 61.6201 168.09 60.5601C168.645 58.2505 169.083 55.9141 169.4 53.5601C169.57 52.4001 169.78 51.2101 170.02 50.0901C170.47 48.0001 170.73 45.86 171.3 43.79C171.854 42.0068 172.239 40.1754 172.45 38.32C172.921 39.1508 173.23 40.0637 173.36 41.01C173.482 41.8245 173.645 42.6323 173.85 43.4301C174.429 45.5961 174.866 47.7974 175.16 50.02C175.33 51.15 175.61 52.2601 175.8 53.3701C175.95 54.2001 176.04 55.06 176.2 55.89C176.67 58.22 177.09 60.55 177.57 62.89C177.717 63.9377 177.924 64.9761 178.19 66.0001C178.84 67.9101 178.97 69.9 179.45 71.83C179.84 73.4 180.15 75.0201 180.58 76.5601C181.18 78.7501 181.75 80.95 182.3 83.14C182.957 85.3605 183.326 87.6558 183.4 89.9701C183.375 90.2491 183.452 90.5276 183.615 90.7552C183.778 90.9827 184.018 91.1441 184.29 91.21C186.62 91.84 188.96 92.44 191.29 93.04C191.56 93.11 191.9 93.1501 191.9 92.7201C191.9 91.2801 192.67 90.03 192.95 88.64C193.35 86.64 193.95 84.73 194.51 82.8C195.25 80.23 195.99 77.66 196.75 75.1C197.31 73.2 197.81 71.2901 198.38 69.4001C198.95 67.5101 199.54 65.48 200.14 63.52C200.74 61.56 201.28 59.83 201.86 57.98C202.44 56.13 202.86 54.5001 203.47 52.7801C203.92 51.4201 204.21 50.0201 204.62 48.6501C205.43 45.9501 206.39 43.2801 207.32 40.6501C208.13 38.3101 208.99 35.9901 209.83 33.6501C210.53 40.7101 211.05 47.73 211.21 54.77C211.21 56.71 211.3 58.65 211.35 60.58C211.35 60.9 211.35 61.2301 211.65 61.4301C211.614 63.0006 211.728 64.5711 211.99 66.1201C212.37 68.1201 212.15 70.2201 212.47 72.2801C212.87 74.9001 212.62 77.5901 212.95 80.2801C213.13 82.616 213.039 84.9649 212.68 87.2801C212.32 90.5301 210.95 92.1201 207.68 92.2801C207.09 92.2801 206.83 92.43 206.83 93.07C206.862 93.9435 206.729 94.8152 206.44 95.64C206.376 95.766 206.341 95.9051 206.338 96.0466C206.336 96.1881 206.365 96.3283 206.425 96.4565C206.485 96.5848 206.573 96.6977 206.683 96.7867C206.793 96.8757 206.922 96.9384 207.06 96.9701C208.46 97.2001 209.73 97.83 211.13 98.05C212.74 98.29 214.31 98.81 215.9 99.21L222.58 100.87C224.24 101.29 225.89 101.75 227.58 102.14C229.83 102.66 232 103.2 234.41 102.4C237.41 101.4 240.57 100.73 243.67 100C247.09 99.2001 250.42 98 253.89 97.45C254.064 97.4173 254.228 97.3429 254.367 97.2332C254.507 97.1235 254.617 96.9817 254.69 96.82C254.887 96.5009 254.993 96.1341 254.997 95.7591C255.001 95.3841 254.902 95.0152 254.712 94.692C254.522 94.3689 254.247 94.1039 253.917 93.9256C253.587 93.7473 253.215 93.6624 252.84 93.68C252.245 93.6179 251.676 93.4078 251.183 93.0689C250.691 92.73 250.291 92.2732 250.02 91.74C249.578 90.2661 249.395 88.7266 249.48 87.1901C249.48 74.2701 249.58 61.36 249.48 48.45C249.48 42.22 249.76 36.01 250.02 29.8C249.99 29.6415 249.99 29.4786 250.02 29.32C250.33 28.6 250.34 27.6001 251.41 27.4901C253.687 27.3092 255.966 27.8068 257.96 28.92C259.9 30.0129 261.501 31.6181 262.59 33.5601C264.254 36.184 265.326 39.1394 265.73 42.2201C266.048 44.2369 266.136 46.2834 265.99 48.32C265.61 52.25 264.76 55.9 262.43 59.13C261.24 60.8724 259.43 62.0955 257.37 62.55C256.21 62.7445 255.078 63.0803 254 63.55C252.68 64.21 252.25 67.0201 253.47 67.6901C254.469 68.3035 255.609 68.648 256.78 68.6901C258.389 68.7107 259.997 68.607 261.59 68.38C264.484 67.8793 267.237 66.7605 269.66 65.1C271.608 63.7304 273.263 61.9865 274.53 59.9701C276.86 56.5201 277.71 52.6301 278.16 48.6601C278.459 46.2612 278.368 43.8297 277.89 41.4601C277.567 39.4575 277.027 37.496 276.28 35.61C276.273 35.2538 276.188 34.9035 276.031 34.5838C275.874 34.2641 275.648 33.9828 275.37 33.76C273.912 30.9939 271.839 28.5991 269.31 26.76C266.511 24.7803 263.346 23.3764 260 22.63C258.64 22.25 257.26 21.96 255.91 21.63C254.11 21.1234 252.297 20.6767 250.47 20.29C248.94 19.98 247.42 19.5901 245.94 19.1801C243.82 18.5901 241.65 18.1801 239.56 17.4401C238.06 16.9101 236.42 16.8801 234.96 16.1801C234.3 15.8601 234.12 16.1801 234.12 16.8101C234.12 18.1301 234.12 19.4501 234.12 20.8101C234.12 21.4201 234.12 21.8101 234.97 21.8701C235.343 21.8826 235.705 22.0037 236.01 22.2186C236.316 22.4335 236.552 22.7329 236.69 23.08C237.224 24.3444 237.483 25.7079 237.45 27.08C237.45 28.74 237.28 30.39 237.18 32.08C236.97 35.22 237.12 38.39 237.08 41.55C236.86 57.31 237.32 73.0801 236.61 88.8401C236.55 90.3101 236.61 91.84 236.48 93.27C236.428 94.8668 235.787 96.3877 234.68 97.54C233.23 98.9 230.12 98.6 228.84 97.54C226.95 95.99 227.02 93.66 226.56 91.61C226.17 89.86 226.33 88 226.07 86.18C225.7 83.51 226.07 80.8 225.6 78.1C225.18 75.77 225.53 73.36 225.12 70.98C224.71 68.6 225.12 66.15 224.65 63.73C224.18 61.31 224.65 58.9101 224.17 56.4901C223.69 54.0701 224.1 51.7701 223.69 49.4001C223.403 46.84 223.256 44.2662 223.25 41.6901C222.92 36.6901 222.95 31.6301 223.05 26.5901C223.019 25.5906 223.288 24.6047 223.823 23.7597C224.357 22.9147 225.133 22.2495 226.05 21.85C226.334 21.7233 226.574 21.5149 226.74 21.2514C226.906 20.9879 226.989 20.6811 226.98 20.3701C226.932 19.2952 227.029 18.2187 227.27 17.17C227.309 17.0587 227.318 16.9391 227.296 16.8231C227.274 16.7072 227.222 16.5991 227.145 16.5098C227.068 16.4205 226.969 16.3531 226.857 16.3145C226.746 16.276 226.626 16.2675 226.51 16.29C225.285 16.4973 224.075 16.788 222.89 17.1601C220.14 18.0801 217.27 18.5101 214.5 19.4001C211.73 20.2901 208.97 20.7701 206.19 21.4001C205.84 21.4801 205.45 21.7201 205.44 21.9101C205.34 23.2501 204.44 24.3301 204.34 25.6601C203.672 26.4728 203.317 27.4981 203.34 28.55C203.247 28.5816 203.163 28.6341 203.093 28.7035C203.024 28.7728 202.972 28.8572 202.94 28.95C201.84 32.37 200.65 35.75 199.45 39.14C198.51 41.78 197.54 44.44 196.82 47.14C196.19 49.48 195.29 51.75 194.58 54.07C193.98 56.02 193.28 57.97 192.68 59.92C191.999 61.7084 191.552 63.5772 191.35 65.48H190.35C190.348 64.5402 190.203 63.6062 189.92 62.7101C189.68 60.6001 189.08 58.5601 188.76 56.4601C188.34 53.6201 187.51 50.85 187.07 48.02C186.71 45.74 186.17 43.4901 185.91 41.1901C185.811 40.2169 185.647 39.2515 185.42 38.3C184.83 35.9841 184.412 33.6277 184.17 31.2501C183.886 30.1832 183.705 29.0915 183.63 27.9901C183.63 27.6401 183.45 27.48 183.1 27.51C182.583 27.5007 182.067 27.5476 181.56 27.6501C179.054 28.3455 176.514 28.9129 173.95 29.35C170.79 30 167.63 30.71 164.46 31.35C162.79 31.66 163.75 32.73 163.55 33.45C163.35 34.17 163.97 34.2201 164.55 34.3401C166.45 34.7101 166.85 35.2401 166.89 36.7101C166.825 39.1453 166.514 41.5677 165.96 43.9401C165.44 46.8701 165.02 49.81 164.47 52.73C163.97 55.38 163.55 58.05 163.13 60.73C162.66 63.73 162.05 66.6101 161.63 69.5601C161.368 72.2457 160.777 74.8888 159.87 77.43C159.564 78.438 159.015 79.355 158.27 80.1C156.84 81.34 154.03 81.1001 153.43 79.9101C152.859 78.6938 152.352 77.4488 151.91 76.18C151.426 74.8342 151.019 73.462 150.69 72.07C150.35 70.73 149.76 69.47 149.46 68.07C149.271 67.2031 149.031 66.3483 148.74 65.51C147.97 63.35 147.34 61.1401 146.74 58.9401C146.17 57.0101 145.84 54.9901 145.11 53.1201C144.11 50.6501 143.63 48.12 142.83 45.58C142.15 43.47 141.42 41.38 140.75 39.26C140.686 38.992 140.519 38.7599 140.285 38.614C140.051 38.468 139.769 38.4199 139.5 38.48C137.89 38.37 136.13 38.42 134.37 38.48ZM280.3 60.36C280.225 63.9419 280.687 67.5148 281.67 70.9601C282.265 73.3979 283.262 75.7196 284.62 77.83C286.626 81.079 289.578 83.6368 293.08 85.1601C295.394 86.0903 297.841 86.6473 300.33 86.8101C301.827 86.8902 303.328 86.7861 304.8 86.5001C309.032 85.7783 312.902 83.6672 315.8 80.5001C315.946 80.3651 316.063 80.2011 316.142 80.0186C316.221 79.8361 316.261 79.639 316.26 79.4401C316.26 77.1601 316.26 74.88 316.17 72.6C316.17 72.05 315.93 71.6 315.28 71.54C314.63 71.48 314.09 71.54 313.49 71.54C313.26 71.54 312.97 71.54 312.93 71.85C312.74 73.36 311.8 74.54 311.21 75.85C310.431 77.6167 309.169 79.1278 307.57 80.21C306.45 80.98 305.16 81.0101 303.93 81.3401C302.892 81.6112 301.805 81.644 300.753 81.4362C299.7 81.2284 298.708 80.7853 297.85 80.14C294.18 77.55 293.24 73.4 292.34 69.36C291.831 66.811 291.517 64.2268 291.4 61.63C291.165 57.8673 291.437 54.0901 292.21 50.4001C292.643 47.6705 293.641 45.0615 295.14 42.7401C296.26 41.1323 297.785 39.849 299.56 39.02C301.72 38.02 304.08 38.41 306.37 38.52C306.57 38.5011 306.771 38.5392 306.95 38.63C308.088 39.3514 309.06 40.3053 309.803 41.429C310.545 42.5527 311.042 43.8208 311.26 45.1501C311.45 46.2001 312.11 46.1501 312.88 46.1501C313.159 46.125 313.441 46.125 313.72 46.1501C314.18 46.1501 314.39 46.01 314.35 45.54C314.16 43.54 314.88 41.54 314.84 39.54C314.879 39.1322 314.807 38.7214 314.631 38.3515C314.455 37.9816 314.181 37.6666 313.84 37.4401C312.38 36.4401 311.25 35.02 309.53 34.35C307.644 33.4585 305.61 32.9228 303.53 32.77C301.28 32.5808 299.014 32.7121 296.8 33.1601C294.99 33.5813 293.259 34.2867 291.67 35.2501C289.777 36.5211 288.09 38.0759 286.67 39.86C283.643 43.8484 281.65 48.5242 280.87 53.4701C280.43 55.7701 279.96 58.24 280.3 60.36ZM351.74 58.63C351.859 56.1592 351.52 53.6877 350.74 51.3401C350.189 49.4436 349.283 47.6689 348.07 46.11C345.35 42.56 341.51 41.04 337.28 40.42C334.684 40.1116 332.053 40.5161 329.67 41.5901C326.598 42.9354 323.994 45.1629 322.19 47.9901C319.85 51.3401 319.13 55.1801 318.75 59.1201C318.742 60.1824 318.829 61.2433 319.01 62.29C319.136 63.9979 319.496 65.6803 320.08 67.29C320.801 69.4533 321.982 71.4352 323.54 73.1C325.601 75.3237 328.315 76.8362 331.29 77.42C334.266 78.0746 337.357 77.9853 340.29 77.1601C342.487 76.4649 344.498 75.2816 346.173 73.6987C347.848 72.1158 349.142 70.1744 349.96 68.02C351.326 65.0871 351.938 61.8594 351.74 58.63Z" fill="#F59B00"/>
<path d="M396.33 101.08C399.8 102.41 398.47 105.51 399.04 107.98H397.68C397.521 108.012 397.357 108.004 397.201 107.958C397.046 107.912 396.904 107.828 396.788 107.715C396.672 107.602 396.585 107.462 396.535 107.308C396.485 107.154 396.473 106.99 396.5 106.83C396.5 106.23 396.5 105.63 396.5 105.03C396.52 104.325 396.265 103.64 395.789 103.12C395.313 102.599 394.654 102.284 393.95 102.24H393.83C390.24 101.86 390.24 101.86 390.24 105.45C390.215 105.85 390.215 106.25 390.24 106.65C390.39 107.7 389.98 108.04 388.92 108.02C388.02 108.02 387.77 107.73 387.78 106.85C387.82 102.657 387.82 98.4635 387.78 94.2701C387.78 93.3901 387.99 93.1001 388.91 93.1401C390.91 93.2301 392.91 93.0502 394.91 93.2502C397.56 93.5102 399.39 95.0801 399.27 97.5201C399.269 98.3625 398.975 99.1783 398.439 99.8278C397.903 100.477 397.157 100.92 396.33 101.08ZM390.2 97.65C390.23 98.1262 390.23 98.6038 390.2 99.08C390.07 100.08 390.53 100.4 391.5 100.34C392.754 100.379 394.007 100.238 395.22 99.9201C395.622 99.8166 395.973 99.5714 396.208 99.2296C396.443 98.8878 396.547 98.4724 396.5 98.0601C396.5 97.0601 396.68 95.9102 395.4 95.5002C394.587 95.1974 393.728 95.0383 392.86 95.0302C390.2 95.0702 390.2 95.02 390.2 97.65Z" fill="#F59B00"/>
<path d="M204.44 25.4601C204.51 24.1301 205.44 23.0501 205.54 21.7101C205.54 21.5201 205.94 21.2801 206.29 21.2001C209.07 20.5601 211.89 20.0601 214.6 19.2001C217.31 18.3401 220.24 17.8801 222.99 16.9601C224.176 16.588 225.385 16.2974 226.61 16.0902C226.726 16.0676 226.846 16.0761 226.957 16.1147C227.069 16.1532 227.168 16.2206 227.245 16.3099C227.322 16.3992 227.374 16.5073 227.396 16.6232C227.418 16.7391 227.409 16.8588 227.37 16.9702C227.129 18.0188 227.032 19.0953 227.08 20.1701C227.089 20.4812 227.006 20.788 226.84 21.0515C226.675 21.3151 226.434 21.5234 226.15 21.6501C225.233 22.0496 224.458 22.7148 223.923 23.5598C223.388 24.4047 223.119 25.3907 223.15 26.3901C223.05 31.3901 223.02 36.4801 223.35 41.4901C223.356 44.0662 223.503 46.6401 223.79 49.2001C224.2 51.5701 223.85 53.9701 224.27 56.2901C224.69 58.6101 224.33 61.1602 224.75 63.5302C225.17 65.9002 224.81 68.4002 225.22 70.7802C225.63 73.1602 225.28 75.5701 225.7 77.9001C226.19 80.6001 225.8 83.3101 226.17 85.9801C226.43 87.8001 226.27 89.6602 226.66 91.4102C227.12 93.4602 227.05 95.7902 228.94 97.3402C230.22 98.3402 233.33 98.6802 234.78 97.3402C235.887 96.1879 236.528 94.6669 236.58 93.0701C236.75 91.6101 236.65 90.0701 236.71 88.6401C237.42 72.8801 236.96 57.1101 237.18 41.3501C237.18 38.1901 237.07 35.0201 237.28 31.8801C237.38 30.2201 237.51 28.5701 237.55 26.8801C237.583 25.508 237.324 24.1445 236.79 22.8801C236.652 22.533 236.416 22.2336 236.11 22.0187C235.805 21.8038 235.443 21.6827 235.07 21.6701C234.25 21.6101 234.21 21.2201 234.22 20.6101C234.22 19.2901 234.22 17.9701 234.22 16.6101C234.22 16.0001 234.4 15.6101 235.06 15.9801C236.52 16.6801 238.16 16.7101 239.66 17.2401C241.75 17.9601 243.92 18.3901 246.04 18.9801C247.52 19.3901 249.04 19.7802 250.57 20.0902C252.397 20.4702 254.21 20.9168 256.01 21.4301C257.36 21.8101 258.74 22.1001 260.1 22.4301C263.446 23.1765 266.611 24.5804 269.41 26.5602C271.939 28.3992 274.012 30.794 275.47 33.5602C275.47 34.3302 275.47 35.1002 276.38 35.4102C277.127 37.2961 277.667 39.2576 277.99 41.2601C278.468 43.6298 278.559 46.0613 278.26 48.4601C277.81 52.4601 276.96 56.3201 274.63 59.7701C273.363 61.7866 271.708 63.5305 269.76 64.9001C267.337 66.5606 264.585 67.6794 261.69 68.1801C260.097 68.4072 258.489 68.5108 256.88 68.4901C255.709 68.448 254.569 68.1035 253.57 67.4901C252.35 66.8201 252.78 64.0101 254.1 63.3501C255.178 62.8804 256.31 62.5446 257.47 62.3501C259.531 61.8956 261.34 60.6725 262.53 58.9301C264.86 55.7001 265.71 52.0501 266.09 48.1201C266.236 46.0835 266.148 44.037 265.83 42.0201C265.426 38.9395 264.354 35.9841 262.69 33.3601C261.601 31.4182 260 29.813 258.06 28.7202C256.066 27.6069 253.787 27.1093 251.51 27.2901C250.44 27.4001 250.43 28.4001 250.12 29.1201C250.09 29.2787 250.09 29.4416 250.12 29.6001C249.86 35.8101 249.55 42.0202 249.58 48.2502C249.64 61.1602 249.58 74.0701 249.58 86.9901C249.495 88.5266 249.678 90.0662 250.12 91.5401C250.391 92.0733 250.791 92.5301 251.283 92.869C251.776 93.2079 252.345 93.418 252.94 93.4801C253.315 93.4624 253.687 93.5473 254.017 93.7257C254.347 93.904 254.622 94.169 254.812 94.4922C255.003 94.8153 255.101 95.1842 255.097 95.5592C255.093 95.9342 254.987 96.3011 254.79 96.6202C254.717 96.7819 254.607 96.9236 254.467 97.0333C254.328 97.143 254.164 97.2174 253.99 97.2502C250.52 97.8302 247.19 99.0001 243.77 99.8001C240.67 100.53 237.53 101.2 234.51 102.2C232.1 103 229.93 102.46 227.68 101.94C226.02 101.55 224.37 101.09 222.68 100.67L215.96 99.1401C214.37 98.7401 212.8 98.2201 211.19 97.9801C209.79 97.7601 208.52 97.1302 207.12 96.9002C206.982 96.8685 206.853 96.8058 206.743 96.7168C206.633 96.6278 206.545 96.5149 206.485 96.3866C206.425 96.2584 206.396 96.1181 206.398 95.9767C206.401 95.8352 206.436 95.6961 206.5 95.5701C206.789 94.7453 206.922 93.8737 206.89 93.0002C206.89 92.3602 207.15 92.2301 207.74 92.2101C210.98 92.0601 212.35 90.4701 212.74 87.2101C213.099 84.895 213.19 82.5461 213.01 80.2101C212.68 77.5501 212.93 74.8601 212.53 72.2101C212.21 70.1501 212.43 68.0701 212.05 66.0501C211.788 64.5012 211.674 62.9307 211.71 61.3601C211.616 60.1388 211.663 58.9108 211.85 57.7001C211.962 57.1869 211.968 56.6562 211.869 56.1405C211.769 55.6247 211.565 55.1346 211.27 54.7001C211.11 47.7001 210.59 40.6401 209.89 33.5801C209.05 35.9101 208.19 38.2301 207.38 40.5801C206.45 43.2501 205.49 45.9201 204.68 48.5801C204.27 49.9501 203.98 51.3501 203.53 52.7101C202.96 54.4301 202.45 56.1702 201.92 57.9102C201.39 59.6502 200.76 61.6001 200.2 63.4501C199.64 65.3001 199.02 67.3701 198.44 69.3301C197.86 71.2901 197.37 73.1302 196.81 75.0302C196.05 77.5902 195.31 80.1601 194.57 82.7301C194.02 84.6601 193.41 86.6001 193.01 88.5701C192.73 89.9601 192.01 91.2102 191.96 92.6502C191.96 93.0802 191.62 93.0402 191.35 92.9702C189.01 92.3702 186.67 91.7701 184.35 91.1401C184.078 91.0742 183.838 90.9128 183.675 90.6852C183.512 90.4577 183.435 90.1791 183.46 89.9002C183.386 87.5859 183.017 85.2906 182.36 83.0701C181.81 80.8801 181.24 78.6801 180.64 76.4901C180.21 74.9501 179.9 73.3301 179.51 71.7601C179.03 69.8301 178.9 67.8401 178.25 65.9301C177.984 64.9062 177.777 63.8678 177.63 62.8201C177.15 60.4901 176.73 58.1601 176.26 55.8201C176.1 54.9901 176.01 54.1301 175.86 53.3001C175.67 52.1901 175.39 51.0801 175.22 49.9501C174.92 47.7508 174.479 45.573 173.9 43.4301C173.696 42.6324 173.532 41.8246 173.41 41.0101C173.28 40.0638 172.972 39.1509 172.5 38.3201C172.289 40.1755 171.904 42.0069 171.35 43.7901C170.78 45.8601 170.52 48.0001 170.07 50.0901C169.83 51.2101 169.62 52.4002 169.45 53.5602C169.133 55.9142 168.695 58.2506 168.14 60.5602C167.87 61.6202 167.81 62.7302 167.64 63.8102C167.27 66.1802 166.82 68.5401 166.48 70.9201C165.915 73.7827 165.624 76.6925 165.61 79.6101C165.557 80.3964 165.785 81.1759 166.251 81.8109C166.718 82.4459 167.394 82.8955 168.16 83.0801C169.16 83.4301 170.05 83.8402 169.57 85.1902C169.5 85.4658 169.5 85.7545 169.57 86.0302C169.85 87.4402 169.78 87.5802 168.44 87.3102C166.01 86.8102 163.64 86.0401 161.23 85.5101C158.82 84.9801 156.74 84.2501 154.43 83.8601C152.84 83.5901 151.32 82.9301 149.74 82.6401C148.16 82.3501 146.65 81.8802 145.11 81.5302C143.42 81.1502 141.75 80.6901 140.11 80.2101C139.37 80.0001 138.57 80.1501 137.84 79.6701C136.84 79.0301 137.55 78.1502 137.36 77.4102C137.22 76.9002 137.57 76.8401 138 76.6801C139.82 75.9901 139.92 75.5401 139.32 73.5501C138.88 72.1001 138.43 70.6602 137.88 69.2502C137.749 68.9046 137.514 68.6079 137.208 68.4003C136.902 68.1928 136.54 68.0845 136.17 68.0901C133.73 67.8001 131.33 67.2602 128.93 66.7802C127.21 66.4402 125.47 66.2002 123.76 65.7802C123.47 65.7002 123.12 65.6301 122.9 66.1301C122.11 67.7284 121.785 69.5161 121.96 71.2901C122.014 71.8122 122.239 72.3017 122.601 72.6817C122.963 73.0618 123.441 73.311 123.96 73.3901C124.71 73.5601 125.14 74.8301 124.74 75.8501C124.42 76.6601 123.67 76.3002 123.19 76.1602C121.33 75.6302 119.47 75.1602 117.57 74.7802C116.24 74.5202 114.93 74.1002 113.62 73.7802C112.31 73.4602 112.96 72.1801 112.89 71.3001C112.82 70.4201 113.58 70.5901 114.09 70.5801C115.355 70.6089 116.588 70.1871 117.57 69.3901C117.834 69.1639 118.031 68.87 118.14 68.5401C118.77 66.8501 119.45 65.1801 120.14 63.5401C120.83 61.9001 121.5 60.2601 122.19 58.6301C123.63 55.2301 125.19 51.8802 126.5 48.4402C127.64 45.4402 129.24 42.6201 129.67 39.3901C131.051 38.9486 132.505 38.7822 133.95 38.9001C134.01 38.9056 134.07 38.899 134.128 38.8807C134.185 38.8624 134.238 38.8328 134.284 38.7937C134.33 38.7545 134.367 38.7066 134.394 38.6527C134.421 38.5989 134.436 38.5402 134.44 38.4801C136.2 38.4201 137.96 38.3701 139.71 38.3001C139.979 38.24 140.261 38.2882 140.495 38.4341C140.729 38.58 140.896 38.8121 140.96 39.0801C141.63 41.2001 142.36 43.2901 143.04 45.4001C143.84 47.9001 144.36 50.4702 145.32 52.9402C146.05 54.8102 146.38 56.8301 146.95 58.7601C147.59 60.9601 148.22 63.1701 148.95 65.3301C149.241 66.1684 149.481 67.0232 149.67 67.8901C149.97 69.2501 150.56 70.5101 150.9 71.8901C151.229 73.2821 151.636 74.6543 152.12 76.0002C152.562 77.2689 153.069 78.5139 153.64 79.7301C154.24 80.9301 157.05 81.1601 158.48 79.9201C159.225 79.1751 159.774 78.2581 160.08 77.2502C160.987 74.7089 161.578 72.0657 161.84 69.3801C162.26 66.4301 162.84 63.5101 163.34 60.5501C163.76 57.8901 164.18 55.2201 164.68 52.5501C165.23 49.6301 165.68 46.6901 166.17 43.7601C166.724 41.3878 167.036 38.9654 167.1 36.5302C167.1 35.0602 166.66 34.5302 164.76 34.1602C164.17 34.0402 163.53 34.0801 163.76 33.2701C163.99 32.4601 163 31.4801 164.67 31.1701C167.84 30.5701 171 29.8601 174.16 29.1701C176.724 28.733 179.264 28.1656 181.77 27.4702C182.277 27.3677 182.793 27.3208 183.31 27.3301C183.66 27.3301 183.87 27.4602 183.84 27.8102C183.915 28.9116 184.096 30.0033 184.38 31.0701C184.622 33.4478 185.04 35.8042 185.63 38.1201C185.857 39.0716 186.021 40.037 186.12 41.0101C186.38 43.3101 186.92 45.5601 187.28 47.8401C187.72 50.6701 188.55 53.4402 188.97 56.2802C189.29 58.3802 189.89 60.4202 190.13 62.5302C190.413 63.4263 190.558 64.3603 190.56 65.3001C190.56 65.6501 190.41 66.1701 190.99 66.2001C191.57 66.2301 191.49 65.6701 191.53 65.2901C191.732 63.3873 192.179 61.5185 192.86 59.7301C193.46 57.7301 194.16 55.8301 194.76 53.8801C195.47 51.5601 196.37 49.2901 197 46.9501C197.72 44.2201 198.69 41.5601 199.63 38.9501C200.83 35.5601 202.02 32.1801 203.12 28.7601C203.152 28.6673 203.204 28.5829 203.273 28.5136C203.343 28.4442 203.427 28.3917 203.52 28.3601C205.01 27.7901 204.27 26.4801 204.44 25.4601ZM124.85 61.3501C127.03 61.8401 129.16 62.1801 131.29 62.5201C132.582 62.5397 133.861 62.7833 135.07 63.2401C135.44 63.4401 135.72 63.1901 136 62.9301C136.28 62.6701 136.22 62.3801 136.13 62.0701C135.217 59.1301 134.317 56.1902 133.43 53.2502C132.73 50.8802 132.04 48.5101 131.24 45.8001L124.85 61.3501Z" fill="#FFFEFD"/>
<path d="M280.3 60.3601C279.91 58.2401 280.43 55.7701 280.88 53.3601C281.66 48.4142 283.653 43.7385 286.68 39.7501C288.1 37.9659 289.787 36.4111 291.68 35.1401C293.269 34.1767 295 33.4713 296.81 33.0501C299.024 32.6021 301.29 32.4708 303.54 32.6601C305.62 32.8129 307.654 33.3485 309.54 34.2401C311.26 34.9101 312.39 36.3401 313.85 37.3301C314.191 37.5566 314.465 37.8716 314.641 38.2415C314.817 38.6114 314.889 39.0223 314.85 39.4301C314.85 41.4301 314.17 43.4301 314.36 45.4301C314.36 45.9001 314.19 46.0801 313.73 46.0401C313.451 46.015 313.169 46.015 312.89 46.0401C312.12 46.0901 311.46 46.1001 311.27 45.0401C311.052 43.7108 310.555 42.4427 309.813 41.319C309.07 40.1953 308.098 39.2414 306.96 38.5201C306.781 38.4292 306.58 38.3911 306.38 38.4101C304.09 38.3001 301.73 37.9301 299.57 38.9101C297.79 39.7501 296.265 41.0476 295.15 42.6701C293.651 44.9915 292.653 47.6005 292.22 50.3301C291.447 54.0201 291.175 57.7974 291.41 61.5601C291.527 64.1569 291.841 66.741 292.35 69.2901C293.25 73.2901 294.19 77.4801 297.86 80.0701C298.718 80.7153 299.71 81.1585 300.763 81.3663C301.816 81.5741 302.902 81.5412 303.94 81.2701C305.17 80.9401 306.46 80.9101 307.58 80.1401C309.179 79.0578 310.441 77.5467 311.22 75.7801C311.81 74.4501 312.75 73.2701 312.94 71.7801C312.94 71.4501 313.27 71.4701 313.5 71.4701C314.1 71.4701 314.7 71.4701 315.29 71.4701C315.88 71.4701 316.17 71.9801 316.18 72.5301C316.18 74.8101 316.18 77.0901 316.27 79.3701C316.271 79.569 316.231 79.7661 316.152 79.9486C316.073 80.1311 315.956 80.2951 315.81 80.4301C312.912 83.5972 309.042 85.7084 304.81 86.4301C303.338 86.7161 301.837 86.8202 300.34 86.7401C297.851 86.5773 295.404 86.0204 293.09 85.0901C289.588 83.5668 286.636 81.0091 284.63 77.7601C283.272 75.6496 282.275 73.3279 281.68 70.8901C280.701 67.4679 280.236 63.9191 280.3 60.3601Z" fill="#FFFAF6"/>
<path d="M351.74 58.6301C351.938 61.8595 351.326 65.0872 349.96 68.0201C349.146 70.1801 347.853 72.1274 346.178 73.7157C344.503 75.304 342.49 76.4919 340.29 77.1901C337.357 78.0154 334.266 78.1047 331.29 77.4501C328.315 76.8663 325.601 75.3538 323.54 73.1301C321.982 71.4653 320.801 69.4834 320.08 67.3201C319.496 65.7104 319.136 64.028 319.01 62.3201C318.829 61.2734 318.742 60.2125 318.75 59.1501C319.13 55.2101 319.85 51.3701 322.19 48.0201C323.994 45.193 326.598 42.9655 329.67 41.6201C332.053 40.5462 334.684 40.1417 337.28 40.4501C341.51 41.0701 345.35 42.5901 348.07 46.1401C349.283 47.699 350.189 49.4737 350.74 51.3701C351.516 53.7083 351.855 56.1693 351.74 58.6301ZM342.65 59.9601C342.73 55.3401 342.53 50.7901 340.36 46.5301C339.54 44.9101 337.75 43.2901 335.93 43.2401C334.633 43.1409 333.339 43.4552 332.232 44.138C331.125 44.8208 330.263 45.8368 329.77 47.0401C328.654 49.3235 328.018 51.8113 327.9 54.3501C327.567 57.9613 327.654 61.599 328.16 65.1901C328.479 67.7674 329.323 70.2519 330.64 72.4901C332.33 75.1101 336.37 76.6901 339.33 73.6801C341.83 71.1401 342.33 67.9201 342.63 64.6301C342.77 63.0801 342.65 61.5201 342.65 59.9601Z" fill="#FFFAF6"/>
<path d="M211.22 54.74C211.515 55.1745 211.719 55.6645 211.819 56.1803C211.918 56.6961 211.912 57.2267 211.8 57.74C211.613 58.9506 211.566 60.1786 211.66 61.4C211.34 61.2 211.37 60.87 211.36 60.55C211.31 58.62 211.26 56.68 211.22 54.74Z" fill="#FFFAF6"/>
<path d="M134.37 38.48C134.366 38.54 134.35 38.5987 134.324 38.6526C134.297 38.7064 134.259 38.7543 134.214 38.7935C134.168 38.8327 134.115 38.8622 134.058 38.8805C134 38.8988 133.94 38.9054 133.88 38.9C132.435 38.782 130.981 38.9484 129.6 39.39C129.54 38.83 129.67 38.51 130.35 38.53C131.69 38.56 133.03 38.5 134.37 38.48Z" fill="#FFFAF6"/>
<path d="M204.44 25.46C204.27 26.46 205.01 27.79 203.44 28.35C203.417 27.2981 203.772 26.2728 204.44 25.46Z" fill="#FFFAF6"/>
<path d="M276.36 35.5499C275.44 35.2399 275.44 34.47 275.45 33.7C275.728 33.9228 275.954 34.204 276.111 34.5237C276.268 34.8434 276.353 35.1937 276.36 35.5499Z" fill="#FFFAF6"/>
<path d="M191.49 65.3101C191.49 65.6901 191.64 66.2601 190.95 66.2201C190.26 66.1801 190.56 65.6701 190.52 65.3201L191.49 65.3101Z" fill="#FFFAF6"/>
<path d="M390.2 97.65C390.2 95.03 390.2 95.07 392.85 95.03C393.717 95.0382 394.577 95.1972 395.39 95.5C396.67 95.91 396.49 97.05 396.49 98.06C396.537 98.4723 396.433 98.8876 396.198 99.2294C395.963 99.5713 395.612 99.8165 395.21 99.92C393.996 100.238 392.744 100.379 391.49 100.34C390.49 100.4 390.06 100.11 390.19 99.08C390.223 98.604 390.227 98.1264 390.2 97.65Z" fill="#FFFAF6"/>
<path d="M124.85 61.3501L131.24 45.8C132.04 48.51 132.73 50.88 133.43 53.25C134.317 56.19 135.217 59.13 136.13 62.07C136.22 62.38 136.3 62.65 136 62.93C135.7 63.21 135.44 63.4401 135.07 63.2401C133.861 62.7833 132.582 62.5397 131.29 62.5201C129.16 62.1801 127.03 61.8401 124.85 61.3501Z" fill="#F59B00"/>
<path d="M342.65 59.9601C342.65 61.5201 342.77 63.0801 342.65 64.6301C342.35 67.9201 341.85 71.1401 339.35 73.6801C336.35 76.6801 332.35 75.1101 330.66 72.4901C329.343 70.2518 328.499 67.7673 328.18 65.1901C327.674 61.599 327.587 57.9613 327.92 54.3501C328.038 51.8113 328.674 49.3235 329.79 47.0401C330.283 45.8367 331.145 44.8207 332.252 44.1379C333.359 43.4552 334.653 43.1408 335.95 43.2401C337.77 43.2401 339.56 44.9101 340.38 46.5301C342.53 50.7901 342.73 55.3401 342.65 59.9601Z" fill="#F59B00"/>
</svg>
